<svg xmlns="http://www.w3.org/2000/svg" xmlns:xlink="http://www.w3.org/1999/xlink" viewBox="0,0,256,256" width="64px" height="64px" fill-rule="nonzero"><g fill="#005848" fill-rule="nonzero" stroke="none" stroke-width="1" stroke-linecap="butt" stroke-linejoin="miter" stroke-miterlimit="10" stroke-dasharray="" stroke-dashoffset="0" font-family="none" font-weight="none" font-size="none" text-anchor="none" style="mix-blend-mode: normal"><g transform="scale(8,8)"><path d="M20.5,4l-6.375,0.03125c0.21094,0.05859 0.6875,0.14063 1.03125,0.71875l3.15625,5.5l-1.71875,1l5.59375,-0.03125l2.75,-4.8125l-1.71875,1l-1.625,-2.84375c-0.17187,-0.36328 -0.44141,-0.62109 -1.09375,-0.5625zM12.625,4.6875c-0.84766,-0.05469 -1.83203,0.24219 -2.5625,1.25l-0.03125,0.09375l-2.03125,3.59375l4.875,2.8125l2.75,-4.84375l-1.1875,-2.0625c-0.23047,-0.38281 -0.96484,-0.78906 -1.8125,-0.84375zM25.34375,11.6875l-4.875,2.8125l2.78125,4.84375h2.375c0.88281,-0.01953 2.82813,-1.70312 1.8125,-3.96875l-0.03125,-0.125zM4.125,12.84375l1.71875,1l-1.65625,2.84375c-0.21094,0.32422 -0.30078,0.67969 0.0625,1.21875l3.21875,5.53125c-0.05859,-0.23047 -0.19922,-0.70703 0.125,-1.28125l3.15625,-5.46875l1.71875,1l-2.8125,-4.84375zM19.46875,18.34375l-2.78125,4.84375l2.75,4.8125l0.03125,-2h3.28125c0.38281,0.03516 0.73047,-0.0625 1,-0.65625l3.1875,-5.53125c-0.15234,0.15234 -0.48437,0.51172 -1.15625,0.53125h-6.3125zM9.78125,20.3125l-1.1875,2.0625c-0.42187,0.78906 0.05469,3.3125 2.53125,3.5625l0.125,0.03125h4.125v-5.65625z"></path></g></g></svg>